#!OML:ASF G:\JayActor3\Patient Classification 1\Patient 1\Session 6\male.ASF
:FULLY-SPECIFIED
:DEGREES
1017
root 4.89065 15.9326 -22.6686 540.748 -53.9145 -546.768
lowerback -0.84269 -0.497787 0.206839
upperback 2.2812 -0.696559 0.107786
thorax 2.81099 -0.354856 -0.0286044
lowerneck 12.0138 8.41286 5.82488
upperneck -11.294 12.1252 -1.39296
head -4.9171 5.74476 -2.2308
rclavicle 3.27032e-014 -3.18055e-015
rhumerus 37.0186 50.4852 -40.6609
rradius 87.272
rwrist -15.4188
rhand -43.5568 -5.73561
rfingers 7.12502
rthumb -16.3945 -35.0628
lclavicle 3.27032e-014 -3.18055e-015
lhumerus -10.1306 -4.33032 73.4026
lradius 43.5064
lwrist 27.879
lhand -17.8652 16.3194
lfingers 7.12502
lthumb 8.40039 46.1323
rfemur -23.077 6.04932 15.2065
rtibia 57.0134
rfoot -20.7333 -6.61999
rtoes -11.9008
lfemur -3.08693 15.5221 -25.7423
ltibia 27.9194
lfoot -20.3089 -5.52803
ltoes 9.37709
1018
root 4.88938 15.9325 -22.6745 540.649 -54.1322 -546.639
lowerback -0.912631 -0.409467 0.24046
upperback 2.22224 -0.577064 0.0848269
thorax 2.78929 -0.293452 -0.0673377
lowerneck 12.118 8.19397 5.69392
upperneck -11.4188 11.8297 -1.30832
head -4.99762 5.59479 -2.17855
rclavicle -8.17564e-014 2.78299e-014
rhumerus 36.279 50.0378 -40.7822
rradius 88.076
rwrist -15.5474
rhand -43.4953 -5.85626
rfingers 7.12502
rthumb -16.3353 -35.1883
lclavicle -8.17564e-014 2.78299e-014
lhumerus -9.98711 -4.83812 73.4662
lradius 44.5954
lwrist 27.966
lhand -17.6974 16.5422
lfingers 7.12502
lthumb 8.56233 46.3485
rfemur -22.6561 5.93075 15.423
rtibia 56.5786
rfoot -20.8695 -6.77398
rtoes -11.2133
lfemur -3.08942 15.4259 -25.6144
ltibia 27.9717
lfoot -20.3867 -5.73373
ltoes 9.36834
1019
root 4.8877 15.9332 -22.6816 540.544 -54.3649 -546.508
lowerback -0.983389 -0.323734 0.261532
upperback 2.17414 -0.461257 0.0675791
thorax 2.77961 -0.234369 -0.0932459
lowerneck 12.2018 7.96887 5.55281
upperneck -11.552 11.522 -1.22757
head -5.0776 5.4395 -2.12351
rclavicle -4.65902e-015 1.11319e-014
rhumerus 35.544 49.5778 -40.8904
rradius 88.8673
rwrist -15.6473
rhand -43.4512 -5.96729
rfingers 7.12502
rthumb -16.2928 -35.3028
lclavicle -4.65902e-015 1.11319e-014
lhumerus -9.82421 -5.27751 73.5308
lradius 45.6716
lwrist 27.9841
lhand -17.5681 16.7076
lfingers 7.12502
lthumb 8.68716 46.5088
rfemur -22.2139 5.82318 15.632
rtibia 56.0674
rfoot -21.1619 -6.97839
rtoes -10.5129
lfemur -3.07278 15.3123 -25.4842
ltibia 28.0033
lfoot -20.459 -5.91979
ltoes 9.31765
1020
root 4.88568 15.9347 -22.6897 540.424 -54.612 -546.367
lowerback -1.052 -0.240927 0.28598
upperback 2.13748 -0.349819 0.0511468
thorax 2.78064 -0.177527 -0.12025
lowerneck 12.2848 7.73667 5.39883
upperneck -11.7165 11.2027 -1.14532
head -5.16785 5.27804 -2.0654
rclavicle -9.61248e-014 -4.77083e-015
rhumerus 34.8063 49.1053 -41.0013
rradius 89.6449
rwrist -15.7218
rhand -43.4092 -6.08994
rfingers 7.12502
rthumb -16.2524 -35.4288
lclavicle -9.61248e-014 -4.77083e-015
lhumerus -9.6405 -5.64931 73.5933
lradius 46.7245
lwrist 27.9129
lhand -17.4747 16.8549
lfingers 7.12502
lthumb 8.77726 46.6524
rfemur -21.757 5.71359 15.8403
rtibia 55.4953
rfoot -21.5657 -7.22921
rtoes -9.84341
lfemur -3.04143 15.1703 -25.3494
ltibia 28.0225
lfoot -20.5257 -6.07701
ltoes 9.2469
1021
root 4.88347 15.937 -22.6987 540.284 -54.8687 -546.204
lowerback -1.1171 -0.158112 0.315469
upperback 2.10425 -0.238821 0.0413021
thorax 2.78338 -0.120938 -0.143182
lowerneck 12.3659 7.4982 5.22417
upperneck -11.8911 10.8728 -1.04963
head -5.26258 5.1111 -1.99858
rclavicle -3.66882e-014 7.95139e-016
rhumerus 34.0433 48.6261 -41.1271
rradius 90.4136
rwrist -15.7828
rhand -43.3612 -6.21812
rfingers 7.12502
rthumb -16.2062 -35.5607
lclavicle -3.66882e-014 7.95139e-016
lhumerus -9.44558 -5.96194 73.6635
lradius 47.7445
lwrist 27.7507
lhand -17.4183 16.9579
lfingers 7.12502
lthumb 8.83173 46.753
rfemur -21.2944 5.59361 16.0568
rtibia 54.8824
rfoot -22.0257 -7.50253
rtoes -9.17257
lfemur -3.00324 15.0032 -25.2045
ltibia 28.0351
lfoot -20.5846 -6.20159
ltoes 9.16536
1022
root 4.88109 15.9399 -22.7084 540.121 -55.142 -546.018
lowerback -1.17591 -0.0776883 0.347766
upperback 2.06912 -0.131406 0.0424919
thorax 2.78079 -0.0662449 -0.156332
lowerneck 12.4563 7.25027 5.02063
upperneck -12.0729 10.5276 -0.937117
head -5.36332 4.93667 -1.92071
rclavicle -3.57812e-014 -5.56597e-015
rhumerus 33.252 48.1482 -41.2657
rradius 91.18
rwrist -15.8385
rhand -43.3027 -6.35974
rfingers 7.12502
rthumb -16.1498 -35.7069
lclavicle -3.57812e-014 -5.56597e-015
lhumerus -9.25222 -6.21801 73.7522
lradius 48.7266
lwrist 27.5041
lhand -17.4437 17.0137
lfingers 7.12502
lthumb 8.80719 46.8099
rfemur -20.8229 5.44765 16.2836
rtibia 54.2511
rfoot -22.4945 -7.76662
rtoes -8.41028
lfemur -2.96508 14.8013 -25.0499
ltibia 28.0525
lfoot -20.6391 -6.29542
ltoes 9.0917
1023
root 4.87886 15.9434 -22.7183 539.928 -55.4316 -545.792
lowerback -1.22055 0.00106344 0.382988
upperback 2.02484 -0.0266994 0.0641199
thorax 2.76089 -0.0131076 -0.150119
lowerneck 12.5683 6.98603 4.79786
upperneck -12.2658 10.1573 -0.829995
head -5.47163 4.75131 -1.8397
rclavicle -7.62339e-014 1.86858e-014
rhumerus 32.4314 47.674 -41.4083
rradius 91.948
rwrist -15.9057
rhand -43.2378 -6.48958
rfingers 7.12502
rthumb -16.0874 -35.8418
lclavicle -7.62339e-014 1.86858e-014
lhumerus -9.06294 -6.41897 73.8732
lradius 49.6652
lwrist 27.2043
lhand -17.5552 17.0392
lfingers 7.12502
lthumb 8.6996 46.8399
rfemur -20.3533 5.26109 16.531
rtibia 53.6205
rfoot -22.9402 -8.00808
rtoes -7.6285
lfemur -2.9388 14.555 -24.8808
ltibia 28.0819
lfoot -20.6895 -6.34928
ltoes 9.02579
1024
root 4.87687 15.947 -22.7282 539.704 -55.7444 -545.524
lowerback -1.2477 0.0744972 0.412137
upperback 1.96523 0.0705796 0.114863
thorax 2.71532 0.0358408 -0.110872
lowerneck 12.6945 6.70771 4.55181
upperneck -12.4423 9.76299 -0.72789
head -5.57756 4.55687 -1.75343
rclavicle 6.28905e-014 -1.63003e-014
rhumerus 31.5859 47.2117 -41.5401
rradius 92.7201
rwrist -15.9817
rhand -43.1648 -6.6192
rfingers 7.12502
rthumb -16.0171 -35.9771
lclavicle 6.28905e-014 -1.63003e-014
lhumerus -8.89373 -6.5606 74.0403
lradius 50.5609
lwrist 26.8706
lhand -17.7724 17.0401
lfingers 7.12502
lthumb 8.48995 46.8495
rfemur -19.8852 5.02512 16.8
rtibia 53.0021
rfoot -23.366 -8.22522
rtoes -6.82817
lfemur -2.93157 14.2638 -24.6964
ltibia 28.1297
lfoot -20.736 -6.36842
ltoes 8.95365
1025
root 4.87486 15.9509 -22.7382 539.468 -56.0661 -545.238
lowerback -1.27575 0.1476 0.449646
upperback 1.90463 0.167061 0.169073
thorax 2.66918 0.0844878 -0.0728171
lowerneck 12.8074 6.41478 4.2989
upperneck -12.6027 9.34591 -0.624068
head -5.67605 4.35257 -1.66115
rclavicle -4.22417e-015 -1.03368e-014
rhumerus 30.7278 46.7367 -41.6827
rradius 93.4889
rwrist -16.0591
rhand -43.0995 -6.7433
rfingers 7.12502
rthumb -15.9542 -36.1062
lclavicle -4.22417e-015 -1.03368e-014
lhumerus -8.72291 -6.67259 74.2187
lradius 51.4191
lwrist 26.5412
lhand -18.1041 17.0003
lfingers 7.12502
lthumb 8.16985 46.8224
rfemur -19.4262 4.75396 17.0739
rtibia 52.4009
rfoot -23.7648 -8.42862
rtoes -6.02941
lfemur -2.94039 13.9465 -24.5099
ltibia 28.1936
lfoot -20.7828 -6.35953
ltoes 8.86861
1026
root 4.87304 15.9552 -22.7481 539.203 -56.3914 -544.911
lowerback -1.30174 0.220206 0.510099
upperback 1.8412 0.262158 0.227502
thorax 2.61901 0.1328 -0.0433916
lowerneck 12.9108 6.10806 4.04885
upperneck -12.7447 8.90823 -0.525015
head -5.76589 4.13963 -1.5666
rclavicle 3.80424e-014 -1.07344e-014
rhumerus 29.8682 46.2564 -41.8297
rradius 94.2412
rwrist -16.1036
rhand -43.0774 -6.83319
rfingers 7.12502
rthumb -15.9329 -36.1978
lclavicle 3.80424e-014 -1.07344e-014
lhumerus -8.55799 -6.77409 74.4059
lradius 52.2544
lwrist 26.2973
lhand -18.6124 16.9033
lfingers 7.12502
lthumb 7.67928 46.7439
rfemur -18.9846 4.46835 17.367
rtibia 51.8131
rfoot -24.1207 -8.6454
rtoes -5.31694
lfemur -2.96692 13.6099 -24.307
ltibia 28.2699
lfoot -20.8315 -6.32074
ltoes 8.73675
1027
root 4.8711 15.9599 -22.7587 538.932 -56.708 -544.569
lowerback -1.34736 0.296773 0.590514
upperback 1.78656 0.362001 0.273404
thorax 2.58917 0.183958 -0.0377339
lowerneck 12.9957 5.79179 3.81454
upperneck -12.8706 8.45867 -0.423746
head -5.84584 3.92088 -1.47011
rclavicle 3.01159e-014 1.15295e-014
rhumerus 29.017 45.7581 -41.9899
rradius 94.9699
rwrist -16.0909
rhand -43.1422 -6.89407
rfingers 7.12502
rthumb -15.9953 -36.2537
lclavicle 3.01159e-014 1.15295e-014
lhumerus -8.3829 -6.86653 74.5797
lradius 53.0729
lwrist 26.1172
lhand -19.242 16.7227
lfingers 7.12502
lthumb 7.07158 46.5846
rfemur -18.5611 4.19469 17.6622
rtibia 51.2353
rfoot -24.4346 -8.87699
rtoes -4.68024
lfemur -3.00145 13.2813 -24.0984
ltibia 28.3483
lfoot -20.8827 -6.26923
ltoes 8.56014
